# This file uses centimeters as units for non-parametric coordinates.

mtllib CCTV camera.mtl
g default
v -20.000000 0.000000 30.000000
v 20.000000 0.000000 30.000000
v -20.000000 20.000000 30.000000
v 20.000000 20.000000 30.000000
v -20.000000 20.000000 -30.000000
v 20.000000 20.000000 -30.000000
v -20.000000 0.000000 -30.000000
v 20.000000 0.000000 -30.000000
vt 0.375000 0.000000
vt 0.625000 0.000000
vt 0.375000 0.250000
vt 0.625000 0.250000
vt 0.375000 0.500000
vt 0.625000 0.500000
vt 0.375000 0.750000
vt 0.625000 0.750000
vt 0.375000 1.000000
vt 0.625000 1.000000
vt 0.875000 0.000000
vt 0.875000 0.250000
vt 0.125000 0.000000
vt 0.125000 0.250000
vn 0.000000 0.000000 1.000000
vn 0.000000 0.000000 1.000000
vn 0.000000 0.000000 1.000000
vn 0.000000 0.000000 1.000000
vn 0.000000 1.000000 0.000000
vn 0.000000 1.000000 0.000000
vn 0.000000 1.000000 0.000000
vn 0.000000 1.000000 0.000000
vn 0.000000 0.000000 -1.000000
vn 0.000000 0.000000 -1.000000
vn 0.000000 0.000000 -1.000000
vn 0.000000 0.000000 -1.000000
vn 0.000000 -1.000000 0.000000
vn 0.000000 -1.000000 0.000000
vn 0.000000 -1.000000 0.000000
vn 0.000000 -1.000000 0.000000
vn 1.000000 0.000000 0.000000
vn 1.000000 0.000000 0.000000
vn 1.000000 0.000000 0.000000
vn 1.000000 0.000000 0.000000
vn -1.000000 0.000000 0.000000
vn -1.000000 0.000000 0.000000
vn -1.000000 0.000000 0.000000
vn -1.000000 0.000000 0.000000
s off
g CCTV_body
usemtl initialShadingGroup
f 1/1/1 2/2/2 4/4/3 3/3/4
f 3/3/5 4/4/6 6/6/7 5/5/8
f 5/5/9 6/6/10 8/8/11 7/7/12
f 7/7/13 8/8/14 2/10/15 1/9/16
f 2/2/17 8/11/18 6/12/19 4/4/20
f 7/13/21 1/1/22 3/3/23 5/14/24
g default
v 6.928203 14.000000 30.000000
v 4.000000 16.928203 30.000000
v 0.000000 18.000000 30.000000
v -4.000000 16.928203 30.000000
v -6.928203 14.000000 30.000000
v -8.000000 10.000000 30.000000
v -6.928203 6.000000 30.000000
v -4.000000 3.071797 30.000000
v 0.000000 2.000000 30.000000
v 4.000000 3.071797 30.000000
v 6.928203 6.000000 30.000000
v 8.000000 10.000000 30.000000
v 6.928203 14.000000 32.000000
v 4.000000 16.928203 32.000000
v 0.000000 18.000000 32.000000
v -4.000000 16.928203 32.000000
v -6.928203 14.000000 32.000000
v -8.000000 10.000000 32.000000
v -6.928203 6.000000 32.000000
v -4.000000 3.071797 32.000000
v 0.000000 2.000000 32.000000
v 4.000000 3.071797 32.000000
v 6.928203 6.000000 32.000000
v 8.000000 10.000000 32.000000
v 0.000000 10.000000 30.000000
v 0.000000 10.000000 32.000000
vt 0.635316 0.078125
vt 0.578125 0.020934
vt 0.500000 0.000000
vt 0.421875 0.020934
vt 0.364684 0.078125
vt 0.343750 0.156250
vt 0.364684 0.234375
vt 0.421875 0.291566
vt 0.500000 0.312500
vt 0.578125 0.291566
vt 0.635316 0.234375
vt 0.656250 0.156250
vt 0.375000 0.312500
vt 0.395833 0.312500
vt 0.416667 0.312500
vt 0.437500 0.312500
vt 0.458333 0.312500
vt 0.479167 0.312500
vt 0.500000 0.312500
vt 0.520833 0.312500
vt 0.541667 0.312500
vt 0.562500 0.312500
vt 0.583333 0.312500
vt 0.604167 0.312500
vt 0.625000 0.312500
vt 0.375000 0.687500
vt 0.395833 0.687500
vt 0.416667 0.687500
vt 0.437500 0.687500
vt 0.458333 0.687500
vt 0.479167 0.687500
vt 0.500000 0.687500
vt 0.520833 0.687500
vt 0.541667 0.687500
vt 0.562500 0.687500
vt 0.583333 0.687500
vt 0.604167 0.687500
vt 0.625000 0.687500
vt 0.635316 0.765625
vt 0.578125 0.708434
vt 0.500000 0.687500
vt 0.421875 0.708434
vt 0.364684 0.765625
vt 0.343750 0.843750
vt 0.364684 0.921875
vt 0.421875 0.979066
vt 0.500000 1.000000
vt 0.578125 0.979066
vt 0.635316 0.921875
vt 0.656250 0.843750
vt 0.500000 0.156250
vt 0.500000 0.843750
vn 0.707107 0.707107 0.000000
vn 0.707107 0.707107 0.000000
vn 0.707107 0.707107 0.000000
vn 0.707107 0.707107 0.000000
vn 0.258819 0.965926 0.000000
vn 0.258819 0.965926 0.000000
vn 0.258819 0.965926 0.000000
vn 0.258819 0.965926 0.000000
vn -0.258819 0.965926 0.000000
vn -0.258819 0.965926 0.000000
vn -0.258819 0.965926 0.000000
vn -0.258819 0.965926 0.000000
vn -0.707107 0.707107 0.000000
vn -0.707107 0.707107 0.000000
vn -0.707107 0.707107 0.000000
vn -0.707107 0.707107 0.000000
vn -0.965926 0.258819 0.000000
vn -0.965926 0.258819 0.000000
vn -0.965926 0.258819 0.000000
vn -0.965926 0.258819 0.000000
vn -0.965926 -0.258819 0.000000
vn -0.965926 -0.258819 0.000000
vn -0.965926 -0.258819 0.000000
vn -0.965926 -0.258819 0.000000
vn -0.707107 -0.707107 0.000000
vn -0.707107 -0.707107 0.000000
vn -0.707107 -0.707107 0.000000
vn -0.707107 -0.707107 0.000000
vn -0.258819 -0.965926 0.000000
vn -0.258819 -0.965926 0.000000
vn -0.258819 -0.965926 0.000000
vn -0.258819 -0.965926 0.000000
vn 0.258819 -0.965926 0.000000
vn 0.258819 -0.965926 0.000000
vn 0.258819 -0.965926 0.000000
vn 0.258819 -0.965926 0.000000
vn 0.707107 -0.707107 0.000000
vn 0.707107 -0.707107 0.000000
vn 0.707107 -0.707107 0.000000
vn 0.707107 -0.707107 0.000000
vn 0.965926 -0.258819 0.000000
vn 0.965926 -0.258819 0.000000
vn 0.965926 -0.258819 0.000000
vn 0.965926 -0.258819 0.000000
vn 0.965926 0.258819 0.000000
vn 0.965926 0.258819 0.000000
vn 0.965926 0.258819 0.000000
vn 0.965926 0.258819 0.000000
vn 0.000000 -0.000000 -1.000000
vn 0.000000 -0.000000 -1.000000
vn 0.000000 -0.000000 -1.000000
vn 0.000000 -0.000000 -1.000000
vn 0.000000 -0.000000 -1.000000
vn 0.000000 -0.000000 -1.000000
vn 0.000000 -0.000000 -1.000000
vn 0.000000 -0.000000 -1.000000
vn 0.000000 -0.000000 -1.000000
vn 0.000000 -0.000000 -1.000000
vn 0.000000 -0.000000 -1.000000
vn 0.000000 -0.000000 -1.000000
vn 0.000000 -0.000000 -1.000000
vn 0.000000 0.000000 1.000000
vn 0.000000 0.000000 1.000000
vn 0.000000 0.000000 1.000000
vn 0.000000 0.000000 1.000000
vn 0.000000 0.000000 1.000000
vn 0.000000 0.000000 1.000000
vn 0.000000 0.000000 1.000000
vn 0.000000 0.000000 1.000000
vn 0.000000 0.000000 1.000000
vn 0.000000 0.000000 1.000000
vn 0.000000 0.000000 1.000000
vn 0.000000 0.000000 1.000000
vn 0.000000 0.000000 1.000000
s off
g CCTV_lens
usemtl initialShadingGroup
f 9/27/25 10/28/26 22/41/27 21/40/28
f 10/28/29 11/29/30 23/42/31 22/41/32
f 11/29/33 12/30/34 24/43/35 23/42/36
f 12/30/37 13/31/38 25/44/39 24/43/40
f 13/31/41 14/32/42 26/45/43 25/44/44
f 14/32/45 15/33/46 27/46/47 26/45/48
f 15/33/49 16/34/50 28/47/51 27/46/52
f 16/34/53 17/35/54 29/48/55 28/47/56
f 17/35/57 18/36/58 30/49/59 29/48/60
f 18/36/61 19/37/62 31/50/63 30/49/64
f 19/37/65 20/38/66 32/51/67 31/50/68
f 20/38/69 9/39/70 21/52/71 32/51/72
s 1
f 10/16/73 9/15/74 33/65/75
f 11/17/76 10/16/73 33/65/75
f 12/18/77 11/17/76 33/65/75
f 13/19/78 12/18/77 33/65/75
f 14/20/79 13/19/78 33/65/75
f 15/21/80 14/20/79 33/65/75
f 16/22/81 15/21/80 33/65/75
f 17/23/82 16/22/81 33/65/75
f 18/24/83 17/23/82 33/65/75
f 19/25/84 18/24/83 33/65/75
f 20/26/85 19/25/84 33/65/75
f 9/15/74 20/26/85 33/65/75
s 2
f 21/63/86 22/62/87 34/66/88
f 22/62/87 23/61/89 34/66/88
f 23/61/89 24/60/90 34/66/88
f 24/60/90 25/59/91 34/66/88
f 25/59/91 26/58/92 34/66/88
f 26/58/92 27/57/93 34/66/88
f 27/57/93 28/56/94 34/66/88
f 28/56/94 29/55/95 34/66/88
f 29/55/95 30/54/96 34/66/88
f 30/54/96 31/53/97 34/66/88
f 31/53/97 32/64/98 34/66/88
f 32/64/98 21/63/86 34/66/88
g default
v 16.732051 16.000000 30.000000
v 16.000000 16.732051 30.000000
v 15.000000 17.000000 30.000000
v 14.000000 16.732051 30.000000
v 13.267949 16.000000 30.000000
v 13.000000 15.000000 30.000000
v 13.267949 14.000000 30.000000
v 14.000000 13.267949 30.000000
v 15.000000 13.000000 30.000000
v 16.000000 13.267949 30.000000
v 16.732051 14.000000 30.000000
v 17.000000 15.000000 30.000000
v 16.732051 16.000000 32.000000
v 16.000000 16.732051 32.000000
v 15.000000 17.000000 32.000000
v 14.000000 16.732051 32.000000
v 13.267949 16.000000 32.000000
v 13.000000 15.000000 32.000000
v 13.267949 14.000000 32.000000
v 14.000000 13.267949 32.000000
v 15.000000 13.000000 32.000000
v 16.000000 13.267949 32.000000
v 16.732051 14.000000 32.000000
v 17.000000 15.000000 32.000000
v 15.000000 15.000000 30.000000
v 15.000000 15.000000 32.000000
vt 0.635316 0.078125
vt 0.578125 0.020934
vt 0.500000 0.000000
vt 0.421875 0.020934
vt 0.364684 0.078125
vt 0.343750 0.156250
vt 0.364684 0.234375
vt 0.421875 0.291566
vt 0.500000 0.312500
vt 0.578125 0.291566
vt 0.635316 0.234375
vt 0.656250 0.156250
vt 0.375000 0.312500
vt 0.395833 0.312500
vt 0.416667 0.312500
vt 0.437500 0.312500
vt 0.458333 0.312500
vt 0.479167 0.312500
vt 0.500000 0.312500
vt 0.520833 0.312500
vt 0.541667 0.312500
vt 0.562500 0.312500
vt 0.583333 0.312500
vt 0.604167 0.312500
vt 0.625000 0.312500
vt 0.375000 0.687500
vt 0.395833 0.687500
vt 0.416667 0.687500
vt 0.437500 0.687500
vt 0.458333 0.687500
vt 0.479167 0.687500
vt 0.500000 0.687500
vt 0.520833 0.687500
vt 0.541667 0.687500
vt 0.562500 0.687500
vt 0.583333 0.687500
vt 0.604167 0.687500
vt 0.625000 0.687500
vt 0.635316 0.765625
vt 0.578125 0.708434
vt 0.500000 0.687500
vt 0.421875 0.708434
vt 0.364684 0.765625
vt 0.343750 0.843750
vt 0.364684 0.921875
vt 0.421875 0.979066
vt 0.500000 1.000000
vt 0.578125 0.979066
vt 0.635316 0.921875
vt 0.656250 0.843750
vt 0.500000 0.156250
vt 0.500000 0.843750
vn 0.707107 0.707107 0.000000
vn 0.707107 0.707107 0.000000
vn 0.707107 0.707107 0.000000
vn 0.707107 0.707107 0.000000
vn 0.258819 0.965926 0.000000
vn 0.258819 0.965926 0.000000
vn 0.258819 0.965926 0.000000
vn 0.258819 0.965926 0.000000
vn -0.258819 0.965926 0.000000
vn -0.258819 0.965926 0.000000
vn -0.258819 0.965926 0.000000
vn -0.258819 0.965926 0.000000
vn -0.707107 0.707107 0.000000
vn -0.707107 0.707107 0.000000
vn -0.707107 0.707107 0.000000
vn -0.707107 0.707107 0.000000
vn -0.965926 0.258819 0.000000
vn -0.965926 0.258819 0.000000
vn -0.965926 0.258819 0.000000
vn -0.965926 0.258819 0.000000
vn -0.965926 -0.258819 0.000000
vn -0.965926 -0.258819 0.000000
vn -0.965926 -0.258819 0.000000
vn -0.965926 -0.258819 0.000000
vn -0.707107 -0.707107 0.000000
vn -0.707107 -0.707107 0.000000
vn -0.707107 -0.707107 0.000000
vn -0.707107 -0.707107 0.000000
vn -0.258819 -0.965926 0.000000
vn -0.258819 -0.965926 0.000000
vn -0.258819 -0.965926 0.000000
vn -0.258819 -0.965926 0.000000
vn 0.258819 -0.965926 0.000000
vn 0.258819 -0.965926 0.000000
vn 0.258819 -0.965926 0.000000
vn 0.258819 -0.965926 0.000000
vn 0.707107 -0.707107 0.000000
vn 0.707107 -0.707107 0.000000
vn 0.707107 -0.707107 0.000000
vn 0.707107 -0.707107 0.000000
vn 0.965926 -0.258819 0.000000
vn 0.965926 -0.258819 0.000000
vn 0.965926 -0.258819 0.000000
vn 0.965926 -0.258819 0.000000
vn 0.965926 0.258819 0.000000
vn 0.965926 0.258819 0.000000
vn 0.965926 0.258819 0.000000
vn 0.965926 0.258819 0.000000
vn 0.000000 -0.000000 -1.000000
vn 0.000000 -0.000000 -1.000000
vn 0.000000 -0.000000 -1.000000
vn 0.000000 -0.000000 -1.000000
vn 0.000000 -0.000000 -1.000000
vn 0.000000 -0.000000 -1.000000
vn 0.000000 -0.000000 -1.000000
vn 0.000000 -0.000000 -1.000000
vn 0.000000 -0.000000 -1.000000
vn 0.000000 -0.000000 -1.000000
vn 0.000000 -0.000000 -1.000000
vn 0.000000 -0.000000 -1.000000
vn 0.000000 -0.000000 -1.000000
vn 0.000000 0.000000 1.000000
vn 0.000000 0.000000 1.000000
vn 0.000000 0.000000 1.000000
vn 0.000000 0.000000 1.000000
vn 0.000000 0.000000 1.000000
vn 0.000000 0.000000 1.000000
vn 0.000000 0.000000 1.000000
vn 0.000000 0.000000 1.000000
vn 0.000000 0.000000 1.000000
vn 0.000000 0.000000 1.000000
vn 0.000000 0.000000 1.000000
vn 0.000000 0.000000 1.000000
vn 0.000000 0.000000 1.000000
s off
g CCTV_rec_light
usemtl initialShadingGroup
f 35/79/99 36/80/100 48/93/101 47/92/102
f 36/80/103 37/81/104 49/94/105 48/93/106
f 37/81/107 38/82/108 50/95/109 49/94/110
f 38/82/111 39/83/112 51/96/113 50/95/114
f 39/83/115 40/84/116 52/97/117 51/96/118
f 40/84/119 41/85/120 53/98/121 52/97/122
f 41/85/123 42/86/124 54/99/125 53/98/126
f 42/86/127 43/87/128 55/100/129 54/99/130
f 43/87/131 44/88/132 56/101/133 55/100/134
f 44/88/135 45/89/136 57/102/137 56/101/138
f 45/89/139 46/90/140 58/103/141 57/102/142
f 46/90/143 35/91/144 47/104/145 58/103/146
s 1
f 36/68/147 35/67/148 59/117/149
f 37/69/150 36/68/147 59/117/149
f 38/70/151 37/69/150 59/117/149
f 39/71/152 38/70/151 59/117/149
f 40/72/153 39/71/152 59/117/149
f 41/73/154 40/72/153 59/117/149
f 42/74/155 41/73/154 59/117/149
f 43/75/156 42/74/155 59/117/149
f 44/76/157 43/75/156 59/117/149
f 45/77/158 44/76/157 59/117/149
f 46/78/159 45/77/158 59/117/149
f 35/67/148 46/78/159 59/117/149
s 2
f 47/115/160 48/114/161 60/118/162
f 48/114/161 49/113/163 60/118/162
f 49/113/163 50/112/164 60/118/162
f 50/112/164 51/111/165 60/118/162
f 51/111/165 52/110/166 60/118/162
f 52/110/166 53/109/167 60/118/162
f 53/109/167 54/108/168 60/118/162
f 54/108/168 55/107/169 60/118/162
f 55/107/169 56/106/170 60/118/162
f 56/106/170 57/105/171 60/118/162
f 57/105/171 58/116/172 60/118/162
f 58/116/172 47/115/160 60/118/162
g default
v -6.000000 -29.000000 -39.500000
v 6.000000 -29.000000 -39.500000
v -6.000000 -11.000000 -39.500000
v 6.000000 -11.000000 -39.500000
v -6.000000 -11.000000 -40.500000
v 6.000000 -11.000000 -40.500000
v -6.000000 -29.000000 -40.500000
v 6.000000 -29.000000 -40.500000
vt 0.375000 0.000000
vt 0.625000 0.000000
vt 0.375000 0.250000
vt 0.625000 0.250000
vt 0.375000 0.500000
vt 0.625000 0.500000
vt 0.375000 0.750000
vt 0.625000 0.750000
vt 0.375000 1.000000
vt 0.625000 1.000000
vt 0.875000 0.000000
vt 0.875000 0.250000
vt 0.125000 0.000000
vt 0.125000 0.250000
vn 0.000000 0.000000 1.000000
vn 0.000000 0.000000 1.000000
vn 0.000000 0.000000 1.000000
vn 0.000000 0.000000 1.000000
vn 0.000000 1.000000 0.000000
vn 0.000000 1.000000 0.000000
vn 0.000000 1.000000 0.000000
vn 0.000000 1.000000 0.000000
vn 0.000000 0.000000 -1.000000
vn 0.000000 0.000000 -1.000000
vn 0.000000 0.000000 -1.000000
vn 0.000000 0.000000 -1.000000
vn 0.000000 -1.000000 0.000000
vn 0.000000 -1.000000 0.000000
vn 0.000000 -1.000000 0.000000
vn 0.000000 -1.000000 0.000000
vn 1.000000 0.000000 0.000000
vn 1.000000 0.000000 0.000000
vn 1.000000 0.000000 0.000000
vn 1.000000 0.000000 0.000000
vn -1.000000 0.000000 0.000000
vn -1.000000 0.000000 0.000000
vn -1.000000 0.000000 0.000000
vn -1.000000 0.000000 0.000000
s off
g Wall_piece
usemtl initialShadingGroup
f 61/119/173 62/120/174 64/122/175 63/121/176
f 63/121/177 64/122/178 66/124/179 65/123/180
f 65/123/181 66/124/182 68/126/183 67/125/184
f 67/125/185 68/126/186 62/128/187 61/127/188
f 62/120/189 68/129/190 66/130/191 64/122/192
f 67/131/193 61/119/194 63/121/195 65/132/196
g default
v -2.000000 -21.732051 -40.320508
v 2.000000 -21.732051 -40.320508
v -2.000000 -1.732051 -5.679492
v 2.000000 -1.732051 -5.679492
v -2.000000 1.732051 -7.679492
v 2.000000 1.732051 -7.679492
v -2.000000 -18.267949 -42.320508
v 2.000000 -18.267949 -42.320508
vt 0.375000 0.000000
vt 0.625000 0.000000
vt 0.375000 0.250000
vt 0.625000 0.250000
vt 0.375000 0.500000
vt 0.625000 0.500000
vt 0.375000 0.750000
vt 0.625000 0.750000
vt 0.375000 1.000000
vt 0.625000 1.000000
vt 0.875000 0.000000
vt 0.875000 0.250000
vt 0.125000 0.000000
vt 0.125000 0.250000
vn 0.000000 -0.866025 0.500000
vn 0.000000 -0.866025 0.500000
vn 0.000000 -0.866025 0.500000
vn 0.000000 -0.866025 0.500000
vn 0.000000 0.500000 0.866025
vn 0.000000 0.500000 0.866025
vn 0.000000 0.500000 0.866025
vn 0.000000 0.500000 0.866025
vn 0.000000 0.866025 -0.500000
vn 0.000000 0.866025 -0.500000
vn 0.000000 0.866025 -0.500000
vn 0.000000 0.866025 -0.500000
vn 0.000000 -0.500000 -0.866025
vn 0.000000 -0.500000 -0.866025
vn 0.000000 -0.500000 -0.866025
vn 0.000000 -0.500000 -0.866025
vn 1.000000 0.000000 0.000000
vn 1.000000 0.000000 0.000000
vn 1.000000 0.000000 0.000000
vn 1.000000 0.000000 0.000000
vn -1.000000 0.000000 0.000000
vn -1.000000 0.000000 0.000000
vn -1.000000 0.000000 0.000000
vn -1.000000 0.000000 0.000000
s off
g Wall_mount
usemtl initialShadingGroup
f 69/133/197 70/134/198 72/136/199 71/135/200
f 71/135/201 72/136/202 74/138/203 73/137/204
f 73/137/205 74/138/206 76/140/207 75/139/208
f 75/139/209 76/140/210 70/142/211 69/141/212
f 70/134/213 76/143/214 74/144/215 72/136/216
f 75/145/217 69/133/218 71/135/219 73/146/220
g default
v -7.000000 -4.000000 -2.600000
v 7.000000 -4.000000 -2.600000
v -7.000000 0.000000 -2.600000
v 7.000000 0.000000 -2.600000
v -7.000000 0.000000 -16.600000
v 7.000000 0.000000 -16.600000
v -7.000000 -4.000000 -16.600000
v 7.000000 -4.000000 -16.600000
vt 0.375000 0.000000
vt 0.625000 0.000000
vt 0.375000 0.250000
vt 0.625000 0.250000
vt 0.375000 0.500000
vt 0.625000 0.500000
vt 0.375000 0.750000
vt 0.625000 0.750000
vt 0.375000 1.000000
vt 0.625000 1.000000
vt 0.875000 0.000000
vt 0.875000 0.250000
vt 0.125000 0.000000
vt 0.125000 0.250000
vn 0.000000 0.000000 1.000000
vn 0.000000 0.000000 1.000000
vn 0.000000 0.000000 1.000000
vn 0.000000 0.000000 1.000000
vn 0.000000 1.000000 0.000000
vn 0.000000 1.000000 0.000000
vn 0.000000 1.000000 0.000000
vn 0.000000 1.000000 0.000000
vn 0.000000 0.000000 -1.000000
vn 0.000000 0.000000 -1.000000
vn 0.000000 0.000000 -1.000000
vn 0.000000 0.000000 -1.000000
vn 0.000000 -1.000000 0.000000
vn 0.000000 -1.000000 0.000000
vn 0.000000 -1.000000 0.000000
vn 0.000000 -1.000000 0.000000
vn 1.000000 0.000000 0.000000
vn 1.000000 0.000000 0.000000
vn 1.000000 0.000000 0.000000
vn 1.000000 0.000000 0.000000
vn -1.000000 0.000000 0.000000
vn -1.000000 0.000000 0.000000
vn -1.000000 0.000000 0.000000
vn -1.000000 0.000000 0.000000
s off
g CCTV_mount
usemtl initialShadingGroup
f 77/147/221 78/148/222 80/150/223 79/149/224
f 79/149/225 80/150/226 82/152/227 81/151/228
f 81/151/229 82/152/230 84/154/231 83/153/232
f 83/153/233 84/154/234 78/156/235 77/155/236
f 78/148/237 84/157/238 82/158/239 80/150/240
f 83/159/241 77/147/242 79/149/243 81/160/244
