# This file uses centimeters as units for non-parametric coordinates.

mtllib Honing Rod.mtl
g default
v 4.619398 0.000010 -1.699631
v 3.535536 0.000007 -2.635568
v 1.913420 0.000007 -2.890215
v 0.000002 0.000010 -2.891966
v -1.913415 0.000007 -2.890217
v -3.535532 0.000010 -2.635572
v -4.619397 0.000007 -1.699636
v -5.000000 0.000007 -0.000002
v -4.619398 0.000010 1.699632
v -3.535535 0.000007 2.635569
v -1.913418 0.000010 2.890216
v -0.000001 0.000007 2.891967
v 1.913416 0.000007 2.890216
v 3.535534 0.000010 2.635570
v 4.619398 0.000007 1.699634
v 5.000000 0.000010 -0.000000
v 4.619398 40.000007 -1.699631
v 3.535536 40.000007 -2.635568
v 1.913420 40.000010 -2.890214
v 0.000002 40.000007 -2.891966
v -1.913415 40.000010 -2.890216
v -3.535533 40.000007 -2.635572
v -4.619397 40.000007 -1.699635
v -5.000000 40.000005 -0.000002
v -4.619398 40.000007 1.699632
v -3.535534 40.000005 2.635570
v -1.913419 40.000007 2.890215
v -0.000001 40.000007 2.891966
v 1.913417 40.000010 2.890216
v 3.535534 40.000007 2.635571
v 4.619398 40.000010 1.699634
v 5.000000 40.000007 0.000000
v 0.000000 0.000007 0.000000
v 0.000000 40.000005 0.000000
v 4.619399 37.967207 -1.699631
v 5.000000 37.967207 -0.000000
v 4.619398 37.967210 1.699634
v 3.535534 37.967207 2.635570
v 1.913417 37.967210 2.890216
v -0.000001 37.967207 2.891967
v -1.913418 37.967207 2.890216
v -3.535535 37.967205 2.635569
v -4.619398 37.967207 1.699632
v -5.000000 37.967205 -0.000002
v -4.619397 37.967207 -1.699635
v -3.535532 37.967207 -2.635572
v -1.913415 37.967210 -2.890217
v 0.000002 37.967207 -2.891966
v 1.913419 37.967210 -2.890215
v 3.535536 37.967207 -2.635568
v 5.749421 38.966029 -2.115404
v 6.223128 38.966029 -0.000000
v 5.749420 38.966031 2.115408
v 4.400415 38.966029 3.280299
v 2.381487 38.966031 3.597237
v -0.000001 38.966029 3.599416
v -2.381489 38.966029 3.597236
v -4.400417 38.966026 3.280297
v -5.749421 38.966029 2.115405
v -6.223128 38.966026 -0.000002
v -5.749419 38.966029 -2.115409
v -4.400414 38.966029 -3.280300
v -2.381486 38.966031 -3.597238
v 0.000003 38.966029 -3.599415
v 2.381491 38.966031 -3.597235
v 4.400418 38.966029 -3.280295
vt 0.644356 0.096456
vt 0.610485 0.045765
vt 0.559794 0.011894
vt 0.500000 0.000000
vt 0.440206 0.011894
vt 0.389515 0.045765
vt 0.355644 0.096456
vt 0.343750 0.156250
vt 0.355644 0.216044
vt 0.389515 0.266735
vt 0.440206 0.300606
vt 0.500000 0.312500
vt 0.559794 0.300606
vt 0.610485 0.266735
vt 0.644356 0.216044
vt 0.656250 0.156250
vt 0.375000 0.312500
vt 0.390625 0.312500
vt 0.406250 0.312500
vt 0.421875 0.312500
vt 0.437500 0.312500
vt 0.453125 0.312500
vt 0.468750 0.312500
vt 0.484375 0.312500
vt 0.500000 0.312500
vt 0.515625 0.312500
vt 0.531250 0.312500
vt 0.546875 0.312500
vt 0.562500 0.312500
vt 0.578125 0.312500
vt 0.593750 0.312500
vt 0.609375 0.312500
vt 0.625000 0.312500
vt 0.375000 0.687500
vt 0.390625 0.687500
vt 0.406250 0.687500
vt 0.421875 0.687500
vt 0.437500 0.687500
vt 0.453125 0.687500
vt 0.468750 0.687500
vt 0.484375 0.687500
vt 0.500000 0.687500
vt 0.515625 0.687500
vt 0.531250 0.687500
vt 0.546875 0.687500
vt 0.562500 0.687500
vt 0.578125 0.687500
vt 0.593750 0.687500
vt 0.609375 0.687500
vt 0.625000 0.687500
vt 0.644356 0.783956
vt 0.610485 0.733265
vt 0.559794 0.699394
vt 0.500000 0.687500
vt 0.440206 0.699394
vt 0.389515 0.733265
vt 0.355644 0.783956
vt 0.343750 0.843750
vt 0.355644 0.903544
vt 0.389515 0.954235
vt 0.440206 0.988106
vt 0.500000 1.000000
vt 0.559794 0.988106
vt 0.610485 0.954235
vt 0.644356 0.903544
vt 0.656250 0.843750
vt 0.500000 0.156250
vt 0.500000 0.843750
vt 0.625000 0.668442
vt 0.375000 0.668442
vt 0.609375 0.668442
vt 0.593750 0.668442
vt 0.578125 0.668442
vt 0.562500 0.668442
vt 0.546875 0.668442
vt 0.531250 0.668442
vt 0.515625 0.668442
vt 0.500000 0.668442
vt 0.484375 0.668442
vt 0.468750 0.668442
vt 0.453125 0.668442
vt 0.437500 0.668442
vt 0.421875 0.668442
vt 0.406250 0.668442
vt 0.390625 0.668442
vt 0.625000 0.677806
vt 0.375000 0.677806
vt 0.609375 0.677806
vt 0.593750 0.677806
vt 0.578125 0.677806
vt 0.562500 0.677806
vt 0.546875 0.677806
vt 0.531250 0.677806
vt 0.515625 0.677806
vt 0.500000 0.677806
vt 0.484375 0.677806
vt 0.468750 0.677806
vt 0.453125 0.677806
vt 0.437500 0.677806
vt 0.421875 0.677806
vt 0.406250 0.677806
vt 0.390625 0.677806
vn 0.874121 -0.000000 -0.485709
vn 0.402725 -0.000000 -0.915321
vn 0.400264 -0.030649 -0.915887
vn 0.872893 -0.040067 -0.486265
vn 0.072331 0.000000 -0.997381
vn 0.071635 -0.022378 -0.997180
vn 0.000000 0.000000 -1.000000
vn 0.000000 -0.020319 -0.999794
vn -0.072329 0.000000 -0.997381
vn -0.071634 -0.022378 -0.997180
vn -0.402724 0.000000 -0.915321
vn -0.400263 -0.030649 -0.915888
vn -0.874120 0.000000 -0.485709
vn -0.872892 -0.040066 -0.486265
vn -1.000000 -0.000000 -0.000000
vn -0.999209 -0.039755 -0.000000
vn -0.874121 -0.000000 0.485709
vn -0.872893 -0.040067 0.486264
vn -0.402725 0.000000 0.915321
vn -0.400264 -0.030649 0.915887
vn -0.072330 0.000000 0.997381
vn -0.071634 -0.022378 0.997180
vn -0.000000 0.000000 1.000000
vn -0.000000 -0.020319 0.999794
vn 0.072330 0.000000 0.997381
vn 0.071634 -0.022378 0.997180
vn 0.402725 0.000000 0.915321
vn 0.400263 -0.030649 0.915887
vn 0.874121 0.000000 0.485709
vn 0.872892 -0.040067 0.486265
vn 1.000000 -0.000000 0.000000
vn 0.999209 -0.039755 0.000000
vn 0.000001 -1.000000 0.000001
vn 0.000001 -1.000000 0.000001
vn 0.000000 -1.000000 0.000000
vn -0.000000 -1.000000 -0.000001
vn 0.000000 -1.000000 -0.000000
vn -0.000000 -1.000000 0.000000
vn 0.000000 -1.000000 0.000000
vn 0.000000 -1.000000 0.000000
vn -0.000000 -1.000000 0.000001
vn -0.000000 -1.000000 0.000001
vn -0.000000 -1.000000 0.000001
vn 0.000000 -1.000000 0.000002
vn -0.000001 -1.000000 0.000000
vn 0.000001 -1.000000 0.000000
vn -0.000000 -1.000000 0.000000
vn 0.000000 -1.000000 -0.000001
vn 0.000000 -1.000000 -0.000001
vn -0.000000 1.000000 0.000000
vn 0.000000 1.000000 0.000001
vn -0.000000 1.000000 -0.000000
vn 0.000000 1.000000 0.000003
vn -0.000000 1.000000 0.000001
vn -0.000000 1.000000 0.000003
vn -0.000000 1.000000 0.000001
vn 0.000000 1.000000 0.000000
vn -0.000000 1.000000 0.000000
vn 0.000000 1.000000 0.000000
vn 0.000000 1.000000 0.000000
vn -0.000001 1.000000 -0.000001
vn -0.000001 1.000000 -0.000002
vn 0.000000 1.000000 -0.000003
vn -0.000001 1.000000 0.000000
vn -0.000001 1.000000 -0.000002
vn -0.000000 1.000000 -0.000002
vn 0.895786 0.000204 -0.444485
vn 1.000000 0.000139 0.000000
vn 0.895786 0.000203 0.444486
vn 0.498491 0.000202 0.866895
vn 0.097733 0.000079 0.995213
vn -0.000000 0.000001 1.000000
vn -0.097734 0.000079 0.995213
vn -0.498491 0.000202 0.866895
vn -0.895787 0.000204 0.444485
vn -1.000000 0.000139 -0.000001
vn -0.895786 0.000203 -0.444486
vn -0.498490 0.000202 -0.866895
vn -0.097733 0.000079 -0.995213
vn 0.000001 0.000001 -1.000000
vn 0.097734 0.000079 -0.995213
vn 0.498491 0.000202 -0.866895
vn 0.564691 0.752990 -0.337831
vn 0.645587 0.763687 -0.000000
vn 0.564692 0.752990 0.337831
vn 0.253173 0.655446 0.711544
vn 0.041058 0.576568 0.816017
vn -0.000000 0.564679 0.825311
vn -0.041058 0.576568 0.816017
vn -0.253174 0.655446 0.711543
vn -0.564692 0.752990 0.337830
vn -0.645587 0.763687 -0.000000
vn -0.564692 0.752990 -0.337831
vn -0.253174 0.655446 -0.711543
vn -0.041057 0.576568 -0.816017
vn 0.000000 0.564679 -0.825311
vn 0.041058 0.576568 -0.816017
vn 0.253174 0.655446 -0.711543
s 1
g Handle
usemtl initialShadingGroup
f 1/17/1 2/18/2 50/85/3 35/70/4
f 2/18/2 3/19/5 49/84/6 50/85/3
f 3/19/5 4/20/7 48/83/8 49/84/6
f 4/20/7 5/21/9 47/82/10 48/83/8
f 5/21/9 6/22/11 46/81/12 47/82/10
f 6/22/11 7/23/13 45/80/14 46/81/12
f 7/23/13 8/24/15 44/79/16 45/80/14
f 8/24/15 9/25/17 43/78/18 44/79/16
f 9/25/17 10/26/19 42/77/20 43/78/18
f 10/26/19 11/27/21 41/76/22 42/77/20
f 11/27/21 12/28/23 40/75/24 41/76/22
f 12/28/23 13/29/25 39/74/26 40/75/24
f 13/29/25 14/30/27 38/73/28 39/74/26
f 14/30/27 15/31/29 37/72/30 38/73/28
f 15/31/29 16/32/31 36/71/32 37/72/30
f 16/32/31 1/33/1 35/69/4 36/71/32
s 2
f 2/2/33 1/1/34 33/67/35
f 3/3/36 2/2/33 33/67/35
f 4/4/37 3/3/36 33/67/35
f 5/5/38 4/4/37 33/67/35
f 6/6/39 5/5/38 33/67/35
f 7/7/40 6/6/39 33/67/35
f 8/8/41 7/7/40 33/67/35
f 9/9/42 8/8/41 33/67/35
f 10/10/43 9/9/42 33/67/35
f 11/11/44 10/10/43 33/67/35
f 12/12/45 11/11/44 33/67/35
f 13/13/46 12/12/45 33/67/35
f 14/14/47 13/13/46 33/67/35
f 15/15/48 14/14/47 33/67/35
f 16/16/49 15/15/48 33/67/35
f 1/1/34 16/16/49 33/67/35
s 3
f 17/65/50 18/64/51 34/68/52
f 18/64/51 19/63/53 34/68/52
f 19/63/53 20/62/54 34/68/52
f 20/62/54 21/61/55 34/68/52
f 21/61/55 22/60/56 34/68/52
f 22/60/56 23/59/57 34/68/52
f 23/59/57 24/58/58 34/68/52
f 24/58/58 25/57/59 34/68/52
f 25/57/59 26/56/60 34/68/52
f 26/56/60 27/55/61 34/68/52
f 27/55/61 28/54/62 34/68/52
f 28/54/62 29/53/63 34/68/52
f 29/53/63 30/52/64 34/68/52
f 30/52/64 31/51/65 34/68/52
f 31/51/65 32/66/66 34/68/52
f 32/66/66 17/65/50 34/68/52
s 1
f 36/71/32 35/69/4 51/86/67 52/88/68
f 37/72/30 36/71/32 52/88/68 53/89/69
f 38/73/28 37/72/30 53/89/69 54/90/70
f 39/74/26 38/73/28 54/90/70 55/91/71
f 40/75/24 39/74/26 55/91/71 56/92/72
f 41/76/22 40/75/24 56/92/72 57/93/73
f 42/77/20 41/76/22 57/93/73 58/94/74
f 43/78/18 42/77/20 58/94/74 59/95/75
f 44/79/16 43/78/18 59/95/75 60/96/76
f 45/80/14 44/79/16 60/96/76 61/97/77
f 46/81/12 45/80/14 61/97/77 62/98/78
f 47/82/10 46/81/12 62/98/78 63/99/79
f 48/83/8 47/82/10 63/99/79 64/100/80
f 49/84/6 48/83/8 64/100/80 65/101/81
f 50/85/3 49/84/6 65/101/81 66/102/82
f 35/70/4 50/85/3 66/102/82 51/87/67
f 52/88/68 51/86/67 17/50/83 32/49/84
f 53/89/69 52/88/68 32/49/84 31/48/85
f 54/90/70 53/89/69 31/48/85 30/47/86
f 55/91/71 54/90/70 30/47/86 29/46/87
f 56/92/72 55/91/71 29/46/87 28/45/88
f 57/93/73 56/92/72 28/45/88 27/44/89
f 58/94/74 57/93/73 27/44/89 26/43/90
f 59/95/75 58/94/74 26/43/90 25/42/91
f 60/96/76 59/95/75 25/42/91 24/41/92
f 61/97/77 60/96/76 24/41/92 23/40/93
f 62/98/78 61/97/77 23/40/93 22/39/94
f 63/99/79 62/98/78 22/39/94 21/38/95
f 64/100/80 63/99/79 21/38/95 20/37/96
f 65/101/81 64/100/80 20/37/96 19/36/97
f 66/102/82 65/101/81 19/36/97 18/35/98
f 51/87/67 66/102/82 18/35/98 17/34/83
g default
v 0.707107 40.000000 -0.707107
v 0.000000 40.000000 -1.000000
v -0.707107 40.000000 -0.707107
v -1.000000 40.000000 0.000000
v -0.707107 40.000000 0.707107
v 0.000000 40.000000 1.000000
v 0.707107 40.000000 0.707107
v 1.000000 40.000000 0.000000
v 0.707107 80.000000 -0.707107
v 0.000000 80.000000 -1.000000
v -0.707107 80.000000 -0.707107
v -1.000000 80.000000 0.000000
v -0.707107 80.000000 0.707107
v 0.000000 80.000000 1.000000
v 0.707107 80.000000 0.707107
v 1.000000 80.000000 0.000000
v 0.000000 40.000000 0.000000
v 0.000000 80.000000 0.000000
vt 0.610485 0.045765
vt 0.500000 0.000000
vt 0.389515 0.045765
vt 0.343750 0.156250
vt 0.389515 0.266735
vt 0.500000 0.312500
vt 0.610485 0.266735
vt 0.656250 0.156250
vt 0.375000 0.312500
vt 0.406250 0.312500
vt 0.437500 0.312500
vt 0.468750 0.312500
vt 0.500000 0.312500
vt 0.531250 0.312500
vt 0.562500 0.312500
vt 0.593750 0.312500
vt 0.625000 0.312500
vt 0.375000 0.687500
vt 0.406250 0.687500
vt 0.437500 0.687500
vt 0.468750 0.687500
vt 0.500000 0.687500
vt 0.531250 0.687500
vt 0.562500 0.687500
vt 0.593750 0.687500
vt 0.625000 0.687500
vt 0.610485 0.733265
vt 0.500000 0.687500
vt 0.389515 0.733265
vt 0.343750 0.843750
vt 0.389515 0.954235
vt 0.500000 1.000000
vt 0.610485 0.954235
vt 0.656250 0.843750
vt 0.500000 0.156250
vt 0.500000 0.843750
vn 0.382683 0.000000 -0.923880
vn 0.382683 0.000000 -0.923880
vn 0.382683 0.000000 -0.923880
vn 0.382683 0.000000 -0.923880
vn -0.382683 0.000000 -0.923880
vn -0.382683 0.000000 -0.923880
vn -0.382683 0.000000 -0.923880
vn -0.382683 0.000000 -0.923880
vn -0.923880 0.000000 -0.382683
vn -0.923880 0.000000 -0.382683
vn -0.923880 0.000000 -0.382683
vn -0.923880 0.000000 -0.382683
vn -0.923880 0.000000 0.382683
vn -0.923880 0.000000 0.382683
vn -0.923880 0.000000 0.382683
vn -0.923880 0.000000 0.382683
vn -0.382683 0.000000 0.923880
vn -0.382683 0.000000 0.923880
vn -0.382683 0.000000 0.923880
vn -0.382683 0.000000 0.923880
vn 0.382683 0.000000 0.923880
vn 0.382683 0.000000 0.923880
vn 0.382683 0.000000 0.923880
vn 0.382683 0.000000 0.923880
vn 0.923880 0.000000 0.382683
vn 0.923880 0.000000 0.382683
vn 0.923880 0.000000 0.382683
vn 0.923880 0.000000 0.382683
vn 0.923880 0.000000 -0.382684
vn 0.923880 0.000000 -0.382684
vn 0.923880 0.000000 -0.382684
vn 0.923880 0.000000 -0.382684
vn 0.000000 -1.000000 0.000000
vn 0.000000 -1.000000 0.000000
vn 0.000000 -1.000000 0.000000
vn 0.000000 -1.000000 0.000000
vn 0.000000 -1.000000 0.000000
vn 0.000000 -1.000000 0.000000
vn 0.000000 -1.000000 0.000000
vn 0.000000 -1.000000 0.000000
vn 0.000000 -1.000000 0.000000
vn 0.000000 1.000000 0.000000
vn 0.000000 1.000000 0.000000
vn 0.000000 1.000000 0.000000
vn 0.000000 1.000000 0.000000
vn 0.000000 1.000000 0.000000
vn 0.000000 1.000000 0.000000
vn 0.000000 1.000000 0.000000
vn 0.000000 1.000000 0.000000
vn 0.000000 1.000000 0.000000
s off
g Sharpener
usemtl initialShadingGroup
f 67/111/99 68/112/100 76/121/101 75/120/102
f 68/112/103 69/113/104 77/122/105 76/121/106
f 69/113/107 70/114/108 78/123/109 77/122/110
f 70/114/111 71/115/112 79/124/113 78/123/114
f 71/115/115 72/116/116 80/125/117 79/124/118
f 72/116/119 73/117/120 81/126/121 80/125/122
f 73/117/123 74/118/124 82/127/125 81/126/126
f 74/118/127 67/119/128 75/128/129 82/127/130
s 1
f 68/104/131 67/103/132 83/137/133
f 69/105/134 68/104/131 83/137/133
f 70/106/135 69/105/134 83/137/133
f 71/107/136 70/106/135 83/137/133
f 72/108/137 71/107/136 83/137/133
f 73/109/138 72/108/137 83/137/133
f 74/110/139 73/109/138 83/137/133
f 67/103/132 74/110/139 83/137/133
s 2
f 75/135/140 76/134/141 84/138/142
f 76/134/141 77/133/143 84/138/142
f 77/133/143 78/132/144 84/138/142
f 78/132/144 79/131/145 84/138/142
f 79/131/145 80/130/146 84/138/142
f 80/130/146 81/129/147 84/138/142
f 81/129/147 82/136/148 84/138/142
f 82/136/148 75/135/140 84/138/142
